<?xml version="1.0" encoding="UTF-8" standalone="no"?>
<!DOCTYPE svg PUBLIC "-//W3C//DTD SVG 1.1//EN" "http://www.w3.org/Graphics/SVG/1.1/DTD/svg11.dtd">
<svg width="100%" height="100%" viewBox="0 0 800 800" version="1.1" xmlns="http://www.w3.org/2000/svg" xmlns:xlink="http://www.w3.org/1999/xlink" xml:space="preserve" xmlns:serif="http://www.serif.com/" style="fill-rule:evenodd;clip-rule:evenodd;stroke-linejoin:round;stroke-miterlimit:2;">
    <rect id="Artboard1" x="0" y="0" width="800" height="800" style="fill:none;"/>
    <g id="Artboard11" serif:id="Artboard1">
        <g transform="matrix(29.929564,0,0,29.929564,40.845237,40.845237)">
            <path d="M12,0L24,6L24,18L12,24L0,18L0,6L12,0ZM12,2.236L2,7.236L2,16.764L12,21.764L22,16.764L22,7.236L12,2.236Z"/>
        </g>
        <g transform="matrix(29.929564,0,0,29.929564,40.845237,40.845237)">
            <path d="M8.1,7.371L8.1,5.7L15.6,9.446L15.6,17.1L14.1,16.231L14.1,10.248L8.1,7.371Z"/>
        </g>
        <g transform="matrix(29.929564,0,0,29.929564,40.845237,40.845237)">
            <path d="M12,5.871L12,4.2L19.5,7.946L19.5,15.6L18,14.731L18,8.748L12,5.871Z"/>
        </g>
        <g transform="matrix(29.929564,0,0,29.929564,40.845237,40.845237)">
            <path d="M4.5,7.5L12,11.246L12,18.9L4.5,15.154L4.5,7.5Z"/>
        </g>
    </g>
</svg>
